<svg xmlns="http://www.w3.org/2000/svg" viewBox="0 0 32 32">
  <rect width="32" height="32" fill="#000000"/>
  <!-- J -->
  <rect x="8" y="8" width="2" height="2" fill="#22c55e"/>
  <rect x="8" y="10" width="2" height="2" fill="#22c55e"/>
  <rect x="8" y="12" width="2" height="2" fill="#22c55e"/>
  <rect x="8" y="14" width="2" height="2" fill="#22c55e"/>
  <rect x="8" y="16" width="2" height="2" fill="#22c55e"/>
  <rect x="6" y="18" width="2" height="2" fill="#22c55e"/>
  <rect x="8" y="20" width="2" height="2" fill="#22c55e"/>
  <rect x="10" y="20" width="2" height="2" fill="#22c55e"/>

  <!-- R -->
  <rect x="16" y="8" width="2" height="2" fill="#22c55e"/>
  <rect x="18" y="8" width="2" height="2" fill="#22c55e"/>
  <rect x="20" y="8" width="2" height="2" fill="#22c55e"/>
  <rect x="16" y="10" width="2" height="2" fill="#22c55e"/>
  <rect x="22" y="10" width="2" height="2" fill="#22c55e"/>
  <rect x="16" y="12" width="2" height="2" fill="#22c55e"/>
  <rect x="18" y="12" width="2" height="2" fill="#22c55e"/>
  <rect x="20" y="12" width="2" height="2" fill="#22c55e"/>
  <rect x="16" y="14" width="2" height="2" fill="#22c55e"/>
  <rect x="20" y="14" width="2" height="2" fill="#22c55e"/>
  <rect x="16" y="16" width="2" height="2" fill="#22c55e"/>
  <rect x="20" y="16" width="2" height="2" fill="#22c55e"/>
  <rect x="16" y="18" width="2" height="2" fill="#22c55e"/>
  <rect x="22" y="18" width="2" height="2" fill="#22c55e"/>
  <rect x="16" y="20" width="2" height="2" fill="#22c55e"/>
  <rect x="22" y="20" width="2" height="2" fill="#22c55e"/>
</svg>
